<mxfile host="65bd71144e">
    <diagram id="SfPIkLmnuzmFqsdH9_XZ" name="Page-1">
        <mxGraphModel dx="840" dy="608" grid="1" gridSize="10" guides="1" tooltips="1" connect="1" arrows="1" fold="1" page="1" pageScale="1" pageWidth="827" pageHeight="1169" math="0" shadow="0">
            <root>
                <mxCell id="0"/>
                <mxCell id="1" parent="0"/>
                <mxCell id="7" value="" style="edgeStyle=none;html=1;fontSize=20;" edge="1" parent="1" source="4" target="6">
                    <mxGeometry relative="1" as="geometry"/>
                </mxCell>
                <mxCell id="4" value="Inicio" style="rounded=1;whiteSpace=wrap;html=1;fontSize=20;" vertex="1" parent="1">
                    <mxGeometry x="354" y="90" width="120" height="60" as="geometry"/>
                </mxCell>
                <mxCell id="5" value="" style="shape=image;verticalLabelPosition=bottom;labelBackgroundColor=#ffffff;verticalAlign=top;aspect=fixed;imageAspect=0;image=data:image/png,iVBORw0KGgoAAAANSUhEUgAAAnIAAAA3CAYAAACIJKdjAAAAAXNSR0IArs4c6QAAAARnQU1BAACxjwv8YQUAAAAJcEhZcwAADsMAAA7DAcdvqGQAAFkySURBVHhe7X0FYFXl+//n3K4FozukWwExSKUmiIC00qFfVFDExCIMQEJpCzEQFFC6O0bHyLEebLCx3u52+/0/77l34273XBiY/P7no5edeM/7Pv0870khIiKCQYYMGTJkyJAhQ8Z9B4XnrwwZMmTIkCFDhoz7DHIhJ0OGDBkyZMiQcZ9CLuRkyJAhQ4YMGTLuU8iFnAwZMmTIkCFDxn0KuZCTIUOGDBkyZMi4TyEXcjJkyJAhQ4YMGfcp5EJOhgwZMmTIkCHjPoVcyMmQIUOGDBkyZNynuIdCToBKq4Ner3f/dFqoBNqs1ECn82zT66BTK93N71MIGhOMRh00nLf/w1CoSV9GA4wqz4Y/CUFFtmE0wfR/XXB3A0EFnSkIwSYNeQ9f10JnMPzlMhJ1KdWnQgNDQABMerV7/PsEgopiSkGcKfL7c/FFUJPsA4zQebr4W222pLoWPDrS+gvJArQBpW7ZkIxCCEot9KZ/OeYo1GSXt9MN5U0dzyn6fyWnCNqAO+czzkNAMIKkkkHxGCbjP4W7LOR4EedE7IHNOBh2FGFhYdi9eT/iXCbo089g446D4rajh/Zic3g6VPdpMceLOPWFz9G0w1JEaf6eYk4Q/n13UGgCwa7vwY+ffomfUnR/upgTVEaos0/gt9kzMO+yVi7mOCgAGnV5OP7Thxi86DKMlKx1qnOYV7UzFkSr/xoZCWoYQioiL2Yvfj8tFC3mtKWgs0bg5+FdMXVHCoyl9PiLava/FbyIE64exsadYe6Ycng/9u7dS7992L//EE7G50J9D/FFUFMBd2MzZrw1D5tSdTBQcv3bbJYXcSXRNRVxxsBYbJg7C9MOWiSKOV7EGRA+qRzKT4uG8f9CMqX491fwwGOOwXoRa+d8TjL+N2KOALWxNDS2OOzYdR6CZDFHeZOKqIwTX+OzaStxWfPPFnO8iFOf+xhV2nyFaH/5jCZ7gaqb2Pf12xj8402YvJNB8RgmF3P/Odz1GTnm0qJ01SCcmdsPAwbMwcXSVVGRijshsDqq52/A2wMGYPKWfNSoHAAlc3mOus8gKOCwZiE9KhtW51//BTN+5kQBJxT/ZjFHzqlRROH07t+xaOFGJGeYoVL8GXqU0Kqv4/Su1Vgy9wfcSM/BfX5S9i+BUqvGteMb8O1bS7HrSjosTgfgtCEXl2G2uP58QKQiTqeNx4GFI9Gr01D8cj4NhoJCQBUITcqv6N+4G7InfoUe3z+CLh8egSpY+5+/p4K5XFCUr48qScvw4oAXsPhoCq7FRSEyJgZRuwajT8fNcKiUdyk/Sqga4MJnL+DLH6vgkUq0RUj6W22WlUDXAhWT5h2fY9ys62jf1AinXSpuOmBNpT9p+WD/Ytj4S6BQUzHB4KJ48+dYUUGrScShdd9g7uxVSE7L/odjDhVxei0S9szCiEZPYNSHx5HlJLv17C2EUgskhmHnT7OxYOkppOdZKVr+kxDgsFmAuCyKP1L5jPuFApFHN2LZh8twPCkDjLYV6MYnhrn+6pzIz1YGQq1RItCgKhxXRslxl/GcUZBxILheR7RrTquVHkSb5tUQYM9Hnroy6rZ7CLVoc60HH8Xj1dSwOrjCFVBpteRwBQpSQq1zX5rV6TRug1aqodXRuta/EhUUgXkfCiqyVCoi23MpV0dGxplQ0kxDp9dBK17n9UBQQkNja5R3MI1i7Zg1G6zFx0hMfAtNnVbYCuzWX3+0Xe21vZAWtUgZNJxfzyVoQVsG6oyVeG7iEWiDDZ6zI8Vl5IZAcuHFlVKtob+ejQW4E/9Ekygn2qvW0PHFSAZzwGKvhwd7PII64qgCxVcNNAUDlVC+t/h2wmKtgiahHdEEahRJW/7k5gOSg4baEQ2CQkU835KdW5QFNBWXE9mGlmzpdt3zwpXa8D6V3g1LQJu0HmidaNVS8ClyJNGt5f155OS0WFHhESo8nqIVM/HFEzJrgfeuJeK9pk7kFBhXMRu6BT/jFIDZSe518MiQF/BMXcrzroKZNNd7NnZ9+jKOPr8OEx6siQaLFqLK4tH4/IQFgVrv3vjYxX3SI+tCm/RHB5eLn+1S7f3poThcDjgN1VGndRNUhwlVW3bBhJdfxItjXsDL8xKweEYQFQKcUhpHRXGBltz2e5s+aWyV4wJ+OT0KuxIHoLzVArM/my0CnujcdqlUevNzJ91YfXXN9cztm2zK7WsC/bXg2LzN+PzQJ+ga6EC+Tx3HYM2xodXyVGQsbIY8WuaJ9rZ8S9oT1xWPobSPx9KCrVL+I9LJ5ct90svuxWPdMeEWpOUgKLkP0wIv3ArsSNAiIDgff0z/Agc1gQgsNNeifuPGnXikfMTqoMUzXdBcq+RTY88OQgH/hYT7hxT/krT7gMGeb0XNrm9i8nhazfdTmDotcFULRc/QDrTC29xqpVCR3Lg/SA8g+pZ4ewHFQRIv3+KJiZ5j/MnNS8+CmM+mF8tn3jmHwWGxo+rjz6FLKyDHSQPx2OuxEd8YVgBpvd8VBB0MQYHIPL4Qo2vWRsXPkxAQ8GeuGRDPd1lf8LP/Ym1Bvl3UBkqQV4rIsSi4j986vmS57F5xZyuXAHPawbgxJDlphZyJb3Txf7lJ0CaizMaLOFUANOp8pJ3Yi+MRGQDNXkzqdFzY774Ee2jPGaRqjdBmnsfJsEPYeywBzuKM8csTpgAIKWcQdjaNfMWMjDQb9KknsOPAQRwNvwoE6pF2agvCDh/BxZuMig0KuMYQBGmycIm2RaY7US5YKykwqXYKpZ76sOF6dCwyuEP4acf7UxpCYFLl4MrBQ+7tpQ1IObZRpOXcdQeRloZTW/Yi7Oh5pKmDoUrdjk9bvImjaQk4tO8C0vQhVPB5y4iMhxxQF1wOzvQE3HCYkJ0QiWQHOXKBtsgI1DeO+eXfEBACtZCB60lWmIx2XL14GclONUyiVXuBijnOHM2NueqQmnAJEUm5CAgyQp/sv39RvsX4LhNE8mCiJVBvN8W/vNOS6kHQBsFgdCD11CGcSyGKclOQ40j3yC4cKQiEPu0U9hBNRy5ch0K0EyX0gSHQZ1/G0ePRSHOqUEon0bsmCCZFGsL3nsANHshySYTkXXemzY8e1EYYKdjkXjqEU1GZUJDO+LCqgLLQWK7jxN5DiLjpRHmxP+LF6QRLp+48AVQfFARzYiQiMnmB6GtDoizF4aXH8QGjxM4oYCSR33k2UWM4M3Zi/e9A6CMPQOnIh6Bvhub1sjH/9xhYKUG6u+IJO5N8cp/ok2F7TiFZZ4Iu9SwOHT6I3ccSIRiCpOlQGqAno7JcOYjjkZQsKHDqxe1+6PajB7/gZy/F3WJUgd1mh1NwIvHoZTw8tA80VrJFoxYZSYlwlCoFy7WLuHzdinI+hu6BQkP/18c7v/RGzsVE5FOQ1bmjl5fNFgfxRNVGVvhenLypRn5OFieagnRJdEP26aVrnSGY/DILV69boMy7isikPATrA8EsGWg6cxPq5qUjlQqHIjW2B0o9Fa7ZsQi/nE6JygjdbfiWsieFkiZi/JiEJNjJz+IjE6EK1sPg4z/k27ogojMbVykWGIIFJF++iCSzgJCgEBgUWYi5fBV2mtSJl+ik5EBFgOg3aYm47uCX9q/h4uUb0AaRvRiysf+TQXhteTSSDh3E2TQNjVHO128K6PXDo6ANhl6di7hDYbiaQ75ndeuRQ6EvBaM2HwlH9uNCsp3iCiVaSTOTih8qP7TrqLUUqAiyW91F1i0SfMDI3ouAJhVakwlOymv7Dl9Bil2JkGJE8mIs88J+8ssjOHLkME4k62DSpeLc3gPYt/ckkgMqQ+tPbt56LhUIncqKpMhYZFKfSp+8zHMOIxopViXzgbVwZCfhUkQSxQnKG1RXFY1hRH6J7J94NFA7PRX+1KfBRIV7gMGTx/jZzBCaUJ7BrAoV0KJvBDqtOoj06XVgyXWQn+rpONKbPgABxI+Sch6/h9RIBbt/8Fh2d/WFJqgctBkXsPfETRo3C2bqQ0n5t0R5RVKOfAfZPx2vM0fi0KEopNlVqBCYgmMbb5fL/hwKSoN7QzmlWMXquLIManFTYYcqA5Rp6/FSraaYcSUHZya1RN3+yxClDII2ZTUmDBiAH5JLo4rWBRZYGgcGDsJP+QEIVHgshYOqdaMuCksqV0LtT8MQdfAT9K/THC3nnYdQtT6C9g1G/57f4Gy2A6ZKRmwYOABPfRdDyimFrB0foUKvr3Dy8g688XADdFt4AcGBRa/tK41lfdqFLrwIfX4YvhtdHS3bzcPpPBeMJt92vL/S5Ssi58BHqFxrKs5kROIz2l5x+mkE1amA7UTL09TGoS2L8qZDmNz/Vfx0KRXZiamw1qTBs64h7mom7Df+wCtFZPQ94ikIn/x2JLo+3A0fzXkHAzp0wWNv7CAj9Nys7nJBqFBXmv/lcUg+Mh/D67RCm2lLMO25Z9C+eygeC52FMAcFKQmLESiNxax+DYMHP49ubR9E5/e2wvJAEwT7ka86sJQP36U/PUMFt9vJCjSoNJYpkR4EXVm4Ln2Fx6s0wOfHI3BwziDUf7Ab5p5To1Lp45jafwy+PZsBbdnqUG4djAHdf0AkVSwBpZzY9X4vdFtyHBe2TkTrBn3w5QUngrwDospE9rYMowZ+jXhFKn6q3wgNl2YhsIy0Tm/RRnatz/bVw5u7oGX78EalIfjuxGX83rkl2g37Hlc0BmSt74+aTWYgMucKZj7SAI2/jKbAxf2CJMKFIp5NzsCRpcPxROsnsSTcjOCQctKypALAmL8drxcb57KfRC8OQIVRgewFKtTsiVGIQlVULOMuJgVVaZQy0E6SsaUw6ZD/acogyLEPk8kn50UFo7KGgnbpcjgyaDC26Mog0LzVh44ImuwEOA7gzcoPYMrxdIS//RDqVZ+FU1QaBVl86Y6geGC46asHo+HOIUigDJmbEk8JNQpXzm7D3MnLcTmPQZl+CN+Nqo5WbWdg0ZTnMW78GIS26YF3D1t8Ay9PPKI8B2Px7qNYUyhP93m4ArkVBSUifSrWTJqAaXEq3FxZA00e/AGZlFRMEjwW1Q2Pi5k4Kuq6E5aey0HqiUUYWacF2r87Fx/2aY8ubd/HxoSNmEj+P/VoDI6+5vb/GH4WyIt8pc6A1LAvMaJeK7T/4iKEnCNY5ofvMqQ3H3v6LBzq/JP48QU6psMUkt/z6NilHd7eGIdDH/f28p9nMf+SAzlnlmJMnYfQ/p1vsOiFQXhlRHe0bf4avl47Cy8OHo7eoe3R8H/rkEVJMkBCDlGqXBz/ajg6te6BzxZPw4ujX0D30MfR8qOjUOfGI92iI65ykZqUhCRFEG7+Ucxv5sdAn3fUr25DqNBil+ejfs2eWJMQjs0zF2EbaVFJtqzQl0f+0U9Rpfo4bL16FSsea4iqI1ciXkuT8yImQck6uHj86IsFF27ixNe+tLf46BhNGvw9LERbpXf4hUKTja0vVkb9ceHIvvIlHm3UB/MjXQj0UryLJmf6Ulb8OqA/+n9yHuUp3jk1lVHh8PMY8nMpuDYNQA0fuR330fNbK/bi+zE1aNt8hOfT2OnF8zK3OcrlfFAN/WIX4YU+PRHarS0ad52OLekKd/FV4CQ0IdLfMTbxM4XJOPLzd9gQlgCV5TJWTx2Ft2ZvwzWB1wsqxO/4Ams2OTA8KRk3rs9ER/t+rFh5FFkBpWAP/x0b9l9A3N5PMPOXS7A64vHbS2Ox9iLFzIKnlHzAaLJausT1hcoUhOTlz6D6+1FA6loMa94CK6hYDQ4pSV4xStQ3JEeKDQE0+Tk0uQWqvXwY6dHz0LpRN0w9ZkS1cv5yGaOJk6ffe8Q9F3JMWQ1IOYhvP56GTk8+gU6dOuPzBdsQTfsUXKBqDRyXfsNmTMT4EYMw5NNxqMlnFZkCGg+Yije7mbDjQiK1VELjPIyjjafi8yfLwpJPSUQcgSp2g4Cjkzvh00G7kf79RIyYNBcvPUm7LAo4NBXQuAk/Vc2di8FUuTUeasUP08GasRlTRhzBay+0QPmqj6FvL+Do1PlYk+4AdemGYKCAuN6n3ZGpX2KjsiUG932GGtHMm5KvTaLd0amLsCbmD0wffBhTj8/GhBGv46OZXWGZdwHOiq3wUBs6nFFocehRrkk9kNpogwLlWz+DtnVose6TGDLsCZS9tBIbissox4RmvbqjFSzIqDwCm88dxbGPO0Jhs7tlwxywG2pI8+9UoFL7sRjag5YvhGDQ8oOIPDodj8Ztxe4rVuiK3ekqnllFFvRtpmHdvuPYP78XUr+ZjlkHgObN29E+X/la0jZhyuCwInyDEsxN+y0nIcHBnLauBHqgmW7+Hnwe+hVCt8Vg+RuvY8z7w9AVDggUyMo2qItqVBzw5opStdHiQU4EPw2uQt7mkRjxTUuMb1UelR7uj6dxFtNn7kGO4tYMR6HTwrxzCraay6Nei26YEb8ckyuZkJcipVNv2vil4opoWkwPZ+Z2ws7xz+GXl0bjoUo18ei0Z6HcMx2Lt99E9PydwKuT8NpLb+PN/wHXfjiODJJJocSZCw5neTR/thseplkZFArkJJOMfGR5CZmCA7veHolVRcaZgiW7zBQEC3v0DwVpLS8P+SQ7nZ480nO5TskLuNw8cFW5e2Fw5DlRLfRdvNlHhSPno2B3KaB3bMMFCjLz2gVh6+vDi9HxMdGRjN1vDcbKD87jh0kjMHr+p3iMvP+q1YWdb0nQvTMTtr3vFNHD+5UUoPqyBLAg+dIJrP59HXZu3YTvj1uhdFigqNoD/bnikIGyfeZh1ebNmP5oPBZviIWF7OOWlCiWaG3YKSXPnVncVKWh0MGRuQ+//nwVjes0xfMfxeGHOfWoQBOwQ4rHIroh+7FU8eg6gKSsROXHR2PI07TrchW8uDsCR49MQdvYX/F7Mf8/bXYUKeScFgsqtBmDgWQasJBey3VAPym+N15FRirZdXF7oolvermO6N27Dx2Tg8rDfsbZI2F4T/ceBi5o4eU/ZzDtsz0IaTMWw3nT+LLo/eV6/LZ3OfphE36+1g1LN+3C0RVDELJpKw7mZpEN+MphwXYlHny2B1ojG+llemHJ+r04Nv1h3FyyDSdUzfBEiwrUeTU80r07nqqciZMv7CjqN8uPwVymvR/dJiAn7zAWTliG0F92YfaLL2Ps5KE0louXcchN34ovJq7D0LXL8MHolzD9/HL03f42Ri6JKlKI8bPMls2jisWP05g68ywaPvu0D+2pS7bjjNkl/aDAXUOAPe8cNm0AXp8zAn2Gv4JxgeHYesYBtdcAzJEHXe1B+OgrMpqz53DJRuMrcrB5ewv8sqIp4kdvkpBbG/Tu5aXnMMpPw3uhX89Q2sYvt9K06KJvXuY2JxYDPE44n8Ks7adx+cB8dIv6DqMXnKYCr6B44r7EpH3J2/5pHIWQh5zMk/hwANnrqz8hskYX1D03Gm2H7qGCVEBudjqWj3sfW9PNlGXykHQ1El+OmYmw7DzkUnH68fPdMe1UBQiLQtGo/jTceKQG5jz1PnblU3yS1IOLcrVABVVJ6gsFBEcGtr+1H4+1rIc2vV7Fzz/OhzG4ErI33Tmv+KtvuBzzNw/E4O9G4syKMeg3+gPM6qXFystKlG4oncv4pXa1MRg6HcVqz+VXaf78454LOcGZAJRrg1GT38fOXbuxc+cOTHq5Kx6gfXyOy/IzoX56J+JOtsYf/bthwdrzZFpO0U4EVELXkX3h/GE+fo4zI+O7NxAxdiCqwEbp2wNBA5f5DDb/CHTpUBGuvFzYrGRsGbSPa4IyE3NXIW4wmq3wqyMqFWzRh3GhYj00rlsHDWrVwOOv7sOu3R+gs1GBfM8hgkYDu792pUvBSYpyNxSk+9vzPlrF7sGJwNqoZnTS7PI6qjz3I5KuD0Ww3QIHvzFZVIZILP3nzlj8srQrixbyXLDm5UAlKSN+jPu+g5o1y9EMoSxKG6l48056xK8k/3wsJwWEXFps2QDVVXbAGIIy5ChmYp7q0iJwJ7FSqFjeBC25U6VOAxFaOQ7Ho6ktFROFKOif5GK7uA+nAh/w4bssBZoCMH9y89GDDraIbdiBh/BgZSfSM3LIKlVk3kqxDw4XJXL3AslG5JlMn2iL2ngI6NscjRrUQ53aj+PV3buw//P2UJOgCiTjoiSo7jQH/S5NR9dGT+K5+S70GVsWtshDd6SNF8yMivFbeqiMANc57Kf42f+h6mhUrzrqtXkNy3Zux5QnyqLtkSxcbrseI/uNxtTFdFAQCdtLRSLEiorPfjOIP5okXJKQ5Y0RCMg8iwM+4+zC1CcDkF1I4G3gIv0F0gyUfMpu43omn2RWbnZAhUAxId3qxQGbLRBtnx+FkD++w8q4XNyYOQWul7vBlnpGgo5tePeRBOxYBzzzgArm1OuwVhyKFQnfoqfuIvZK0P1pj2pwdVhURA+9RpYn/ZSkkjPigfZ9Mf3Dd/HaB4uxe2Fb8k8DSdEKQbyRqToeqESB1WFCCL+9Jpv8z1tEFEtY3iUclKDr466Vuaik4bJAGdQZQwelYdpTTfH4iEVwtXgCwdnhJdMNv3XBo2txlXxfmU0LrWujMtFUtmwAlN23+YmR3nCfURWPpZ3MRZMcKb7JTSwX90v7pp1oES9j10DN8gqUqV4V137fL+E/HSCQz6j4NfralVAaNHkUQlA6CChToSL0tFkIKkXb82miE4fDkjKtRBS7b0mp9kBFmJRKmEJK0Vo+8h0FcYsKL/IFaw5D92xfv2EuuzSPVlLv+c3YElEDD9ZmVLhSMNUGUqmcD6ZQIi98B3ZdLYsa5e3ISqeAFdgWHamGif7qINIoFLrlKkBFRUbkpoM+/B+Y3RFq5od2MlW+/c+DygttDyyKPYF2a7rho89W4CTpVsuVW1TxcGSnwdhxJMZgPWavT0dQ8mf4qO40dLTl4wlJuXHb8NJz+fKUC3LBaGIjgmRu7Cmdl0VwvdeqRPnCDm2t3hg+lNY3XkCOw3MHqaCEJes8Dt3J/pkd+bYm6DYmFC2avY65y2Zg2ogRGLXoE+BwJPJoQtJswET0bqKCk2RszTWi1ZD/oXc9NZyCGlUea4+OD4/B62+9iIlv1EWpSZ9g4shxGFbuHKJoounvnkIQ3TZWgvqCOGbKEHRaPBDR00JRu/M4LLM3woQqJNMNd84rLD9Dsr5h5PMXVx8Hnq6JYBovO7cs+s2nSfGoimJMlsxl5JdXfxyI6tVbo1275qhW/T3sJGu4m2Luz9llChFDAcaSZ4Y5j7yEUMCooAuGfe//UKPFUtSbtxavDGhBxuHeq7BkQd9qLD5scRjf/LAdS9d2wsKnddRHoTkRiDRnLrkPkJaWB6OODJGf/g127xXBE30pz82XlPyV5cSNcLioCLt+GTFCRTzcrD7qNmiCegYHEshIvRlmgk66nb2oBJ1URRdvVz9QjWyFnoLrBZxNcCDYpIZKrUL6gV247KJChHdBido9Hq+5b90QKkqBaFdojH5k5G7Jl8SgR85J8c8XUvx7ih/xdjUzvxlYXCUe+M0P0uBlpnuB/io1UCQCZUtT8uPU+8iXgotKJ8n3YUEr7ndTQO2YH/l660FBM0QzFRhIRzrRq/N4qILL3AO+hRd1Ajm4+0lfLk8qTHh8jY+GomotNKtfB42bN4c+L5ncx0vLrnwog3thypVD+HFyM5z8fARajFyFNKaHUAIb4bilB+7IXJNAZIyAxg82Rv06ddCoYQDysgQcfjcI9V+ujcnfLMSnE6gRGa9A/IkoEEoRMGlZ7t+DaCog+VSi6DgmZEgRKAFmt0NduRHqBcXjWrILSpWaYtw13CDdlnq0KUyqQq2LYJYcaB4cgv81P4qfftmG+bGvYGYzB9mPFL+lYMtWUtkPXDwdD6VeBzX1r848gdOxTJLu5IhU6MsNKKqH0b8jjY7j98EE+r1s5ZY//zc3NxuZqZmo8cxAdNJcxJkIEqvA9/Lqxt2G8WLH4wPe4Pbjy4cJqTHuwCo9tosKCB06zTiGfT+8h5onZmJ4+9ewIV0QrfOedMNDXDYFdLInlyrAb4z0vXWQtrt3eaE439w3tVBJ+GYYFY7uLnmyoSMoqfjzHyoF3P3m8sTjhpPqJe4DBSSIfd1Bpm7S3Me4//VmiscVAdogLcLe8fUb/lCbG8V4pDjEzPkULzKRluqExlOfiBUIZ4zsSUGx7nqSi2ySbxcg3t1QJQj8YW6xKxE0vgT/urwMkWf3kP5o94MS+KUbAlz2vZjbeyjmNf4R770zHI9VonBN0lQVVzwjWRrbYcjblXHlq+X45juGFz9pIcaVw7eVm1vPLgf5sGeLCNqfu0fa5grdhg50ca7J98WriTSJNahI7gX7/ejdx/6pmHM57Lh61gWVw4bMHDNsfEIhypI/OGmD9Vy4Z1wXnE6SvNatUJfTgdRjmeJ9sWrrFWSkqOGwU/GfEktHU+7UmhBg0ktekmT5JakvaIz8XAR3m4dd+37Aew2iMXNkDwz9PpbiFO28Q16Rrm/4DvLd8vQ37gyiqI4wkRFqdVnY9PsxuEj2IufEcJFcRvIOqtYKr0wYjH79huPll1qgnIY/vFNylNj0bkFBud59ehA1lDQLUogOAkpIPNHxGSj3BJXSinMrlwDNHkeLCgJSY+ORSjvs6cmItVA61DRA75f6IWrxyzjccyKe0DhAm2+BkdhMTdG6A3Dy3ffx1clMKNOP4dhu2meghtzJAkh0GfGIp4Bjj92Fg8doXx4ljLod0bHCKXz8xPuYt/M8Vc0/4tFHFsJMQi3Iq8xmgbpWO+l2gtPNHweNo33At13zFotgqdcB7ctfxNwX5+CXs3GI2fwOGvdPQBWjCkZecKbEIMOZj2tHTiGeQk8eFSp8kqngNa/RDG16NLb9JC2jVLsC6qBA0jOVNFLTDx6Ipfi35UCt0UIRQssUqDT8yTMyGJWyCm0Qbj0w4QXutny+xW++dUVvx3cYhJFtNbDpK/j2b74JQ4MO6ODDdzwa6qkX7uQBFJVIRfraNKu6ox5o5levBVriIObO2IxT2bnIOHcOMUSRgmaPgiIAVAYgIcEMZ9457D9Msx0KeTkuJap0GYvqx6dj7Pu/YNf5CIQvexqtXsyBUe8pPgkKQyBcsyph1sVy6D9lDbZ+3QvYdAqZtclGKt6eNj775AFTFRTk0YOd+muMTqPK4PTHwzBmwV5cjDyGn2o8jC0pR7FhPvDQ6Mao5IzHhdN0fEUn0pOui0+eKUrTOqmTPwnoLSND/fYSsoxG5XLN0bH4OJVa4wuzBvpCAj0QiGbyQ2Vd4pfo1PPLIIwK2MBO6N0T2LLtEqxaA1xZ53A8ozkm9a5I+cHrbKsIO5imMXqNCEXEggnI6TsMtakPQYrfSg9huaM1Og+jYD7vdUxeewFJEZsxqelYxNRohSdGl/ahe4EzEIaPSxfVw5aTSKSZRvqeGZi+Jg6GYsWcoNETHzwoiDdrQEU8GI0GqJUWnP58PiZoQ6Ake9aWouDPZUpJXJxsGLjde/XEY4kkHyTPPJockjxFfXAf8E6kCgMM9qWY+clR1Ov9DuZt+QY9sQXn0qqjowSPProhXYh0efpW8SKD2wH9uF8qiY9wvzHSMxkUQcGeT7D4sQH8WJXYtQ/f1J+RfNM3JsWjAYVnbnflyvFjiRaXFlX9+I9WR/ZK46Asf6KWfIlsS0Xhg9uYjl+pILr4eUaXsjo6SMmBy5QIVIVUoDEV0FC+EAuMcm5/cp8dsiLfeRMR5w/gj4W+fpN2I5nkQ/rw4TEPhsaP4pGgC5i7aDciKfkzcxaVdXmUqBlMTbshtG4cvv75BNL4OwJZEsLXAx1f64RSFNfdKYYmUE4//A8nm+f8+qGdloqBaCOZ0CFULHKd+rYQwR+04fosS75JbfLObcXKMwa0aWiEgyaUkUmkT0caEmItZCdeNkRw5FlQse+b6HJtIV5JbI1XK9iQm3kEv/uRG9dToZ6pK8FrbIXSiQt+bO6GlSbV16gdHa/VGaGynMPm5cCzr3eAlgTntj8nAkKa4smSxCaFDhqdBrXaG6DV8ge7qPDSaNC+vftpTVF29K85h5Gr6cGuHsTBcCp8BCr8aHtgw0CKl255Nq9kc/NCDqChtpbwRZizcCtSTUaJYs4Op/oO9QVpUqO3Y+XIkYiuGYpJ32zD0mf1WLfHgrId75RXSK6SvuuELS0N+o4jUeXcQkyevQPh8RexfUxDPHe1LsUt6VxG6RXBbSbg7Tdfx2uvTcK7k/uikS3v1tsySoKIiAhW8l8ki716gW3/djIbWIf7RG3W98Nv2aaIFJZw6Hs2b0IHRqUFq/TkRDbttxPs7OrxrD73mopPsLHTJzCqyVj1IYtZWHwci74Sx2JidrIJzR5lbx2KYTdiJMaLTmKxR79io1sGcJZYnWensWldqb9nf2Mx166ymEur2fj6om+ylmMWsMlt+XJ39umWKHZ526esf/PS4j7Uf5Z9sj2CpcZdKdJ/ZHw6u7DlE592acmp7OLyfrStL/vhYiS7liDdLv1GJju38SP2TD03DeXaTWA/nolj1xNTWPhv41k93haPsDELJrOuAbVY29Ffso3RKSzsi6fF9g1GLGY7fnuVNeTtvGT0wLA5bNmcQYzyMqv0zFT2/cFolhDtJRf+i4yX5t80kM1c/CnrwfvEM2zW+u1s9cx+7AFabzpyCdt4LpbFRnr6uBLD4uIOsgVjOlLbSqxTP85zd7ZkfxRLTUi4jXyj2flNxfmOZ6k3LrBN8wawWrSt/nPz2NrwG+zSVl+5FddDdFIWO/jVCNaYt0Ew6zntXdYdZdjwVRfYzZsJ7NcJTcTjK7Z9gS2c3JaWH2ZD525icZZstvGz/qyJyU1H7d4z2e64BBZ35VbfkYk32fnPWtD+B1ifca+zvsTPiK/CWHpqNrsoodNbtEWxuISzbN2cgawO7S/UQ2w8uxa7i33Wt7H7ONRgPWZsY6nZ1wrprN1lLJs+oQ0tV2NDlhxkZzfPYp3Ftt3ZrHX72Pq5A1htWm8wZD7beCmVnZewocQYqXG2Et1x7IqHt0I644+yP+a9yB7k7R57jc3+4yS7FhfFIqKusoQLv7D+tP3ZGfPYWPr7zOy9LDs5tlgfnt8Vkl30CjbskeHs56g4lsDlSHYmSUf6DXYtciub+kwd9/aQtuzFH4+zjOvXJNtn5GdL6OEIu3Ejmn1Rhbd7mx2JiWHRHlquxCSwy9sXsU9GtGQm6qdmp+GsZ4+n2JOdn2Rda/H249mB8K1s3oDqtFyXPT9vHdu+erpHzs+yLzafIToib/Emycc2lpsfVcRm15yMZnFRBccksqjwmaw97Ws5aDwb2bc+6/XCV+zM9SSWdEfdcPs5xzYW6voL9uuqWYzqamrfnk1ecYAlpqTdihNSMdLTVxTZ9Mn1n7FO4rHPsHlr1rAvBtSgZV++v9x60cc3fzp7lV09vYbNHdyAtlVnvaetZIeuXmWJ6ak+/rPn2g0Wvnmeh86u7LPf97CNi0axRrQe8vR0tmr/drb0pUeZDpXZ09N+Y+ev7peQaSTb9MVAke+GQ+exjbtWsxl9q9L+hmz4ki3s7LEv2dO8vWYQ+/LIFfbbq8X9phYbPvdH9sVAPzxuu8BOrprEWojrZVin53uzVijNWgydwVafv8kid33OuvJ9DchemoH1+GATS85MYJGFuuG/SBYvwf/+pCv+aV+8mV26Flukn6i4eHZkzWfshaa8j9ZswqIN7Ma1OK9x6Ee+FHtmHZvbj/dTmw2au56dvbSWvfqQe9y2o6ezCY/y5R5s/kHKN8VjfcQVFpN4la14vhmr/TPF2YQoFpsYJxFvarGhc74vqufEGyz29B9sTj/uJ3XYc/M3s7DVE1gDLp8iNreEHbtxne2bP4jV4H12G8Da0t9RSw6w3Oyb7NTGGR75P8VmUHy5nrD79vZ/JZ7FRvzEJrUtK7ap/9yX7FTM92xcM14S6liTF5axlNQUdnDm47Relj3WugoLaBDKHub9NZzI1l38lfWl5YdnhbHLS3jM78WWnjvHPuL7R69kv46uKPbb5fMTLDWRYl0RefHx71RfUC2TcJlN5f2hAxv+0jD2aLVn2OKTV9nNbF+78Mkr8cl+fHcJO5GexNZN7c1qin2DPTb+R3Y5mWJxYryfXLaRXS5mV3f7E/g/1PFdgCpZgxEuuwVOBz99r4PZnA8bVd86rQYWc7b4V0VVdR6M4hkilVIJg86AbHMO/VXD7lRBTbNrlfknjP6fBZ8t7w9tjlX6VCL/WoDCDofdjoBgDf4IrYH/VVuNmC8fgsNCMyAVzcicTrFfq5NX+C4oXHbkC0YoXRbY+SUmNX9a0+udXV5QaAOKtDMQ7VZBh7ydL6DB0AD8evF9tFZRpa0p2q6gP4U2kMbLF2Wh1aghOGzueyl0QSLvfIZm1BqRnZ8LI6cx3wKXIQSuvEzxsWyrSweH1VdGLoUBeeZMcZnZqc/iJ1A4SOYqCf75o9oWK80safqgpdmVQ2OCJScdJoMGNosNXrey0eRCDa1BK46hVtNY/CwY6dbM74b3079bviYJvpXQmoJgzU2HkcZyWG2wq6TlVhwqYykwS7Z4Akawbcf4RuNQdtUFzHpUC7PCCHtejjiOQm0gHnLFt99nmx1QBwTTvizwF8jqiUYH569Y9wpTCJRWbpdaOPjZe8GKTH5zbzHd+9LG+QmEtbgeFFqaYSqJDi5jAcFGFTJyiBajSaST2z//bJCFdB5Es7hshw6C0+LRhwC7OqBQRnai16GWtiHpcfg7xIqD0xlAY2dDQ3zwk/LmgtcxKE3QKVMRteswLC2ewuMVXUjJkurDA0EPjcYJpY1oKGjkjw7arqHtdtrO369mVDNkicYv3V6Q1IOTZsYG4p/kYCU/9wzJIaj10KqVsOTlijIVLw8T+CUYl9MOuGg+r1HR+Hk0hgZmhwYu/poVkrOG4o+5iKETJOmi8YvZrNebLOgYE5RCvjg+v6wnMBvFOCscJdKNtz9o4WIU+xxWCuMuGNQCxQSyQU+cKO7/ljwaw9MLh1JrumVDShVsApe7NN+SvgnSFcnKlm9GSIAO2TkW6l8BrYT/ONRGKIhP7oz8aoBdaYSN2vD9/KILU2vJJ3Lc/Zj5/V7+ZWoivu0OfhZOIdpJsEGNbCu/+G4Bfzejijlhp/jk4zcGyisUb6R5ZLCQXQt2sygbrYaOsVpE+uwWC2y0jzil/t1nE7VKJ7IovxSzBoIU/04IRv+0Z5ltPv1w3Sg8lxH5Z/CyyD58QHxx+Rfwk50nQPDEVv5OOPF1XS6KIcxBvHqOKQL+8J8RJmZGhuiYlIel4o1HbkX0XGRsNXIcergkbY58lHiHzSzGQ34WXCPYab+dXMfL/hQMuXb+VOod7J/yqEbLX0Zsdfefr4BCw1/XYhPllE1y4q//cCRfwNWcQFSvRmPbSQYqJZiN8pbSgUCq+zJZIMUjim0uBpuKcjSFAZuhPDJ+G49msW8i+SVQHLmlFQXlW0OJ6gt+Vk4HJdmgSkW+TzFFwXOfQ9ovfPKKX9+1QxkQBLuZjicfCqC4YiZe+XsOC3Tmm8t87epucA+F3J8DF7Lt/Cpsji8N41fDseyNeGxpZ0XaHW/gJuGa1Ng8vAbGlV2Na7NbIi/b6j8h3QP4yw1zL+xDXNk2aH2hMyouHY8Lv/WENt8uXWTK+OuhCILCthYTG32MkFU78MXjaiR7OamMewAlfTV/dY3dCtvf8KUSGTJkyLhXuF/+TgUefxDGs+12UOr0SNs2Hq0/exhHjwxF2Uyz+BQ+x73XF/c3/FzQ/7vA7xNx4tKWuXjjpeH4uetvWNsNnhnG7aHSaXH90Pf4dQetrFiFlcf5p4j4Ffa/Cgqa8Vtw/Oth6NU6FGN3hGLevN4IoVmtXMT9U1DR7DIBZ9fvRDgScXbbbuy5yWfUnt0y7g38rAc/UyEXcTJkyPiPgT9pay9hEcfhslqhf2wW1QNFi7g/U1/c7/jHz8hxYWuM/DJQDoL4KeZcqVPe0lDpAgBHvnjjppoq+MLLR38Z+GVjA5xWz6WUgkuMMv5BUDEXEOi5FKyFnZz2L1ezDBkyZMi4b8Ev57pfY1Mc915f3M/4Fwq5WxBU/L46FZR2M3Il7pu6IwQNDCYtFDY63vofUZdAhYjRCB3ykZV7m3uR/jHQLEVnFO8Tsefl392TMH8F+CfW9EqoqAD3r2MF1HqSmdKB/Nz8IvcG/ev0/1VQqqFTq8R7TGgOCv5OMYuNV6gKqGjSoBaf9uKP5Fvd98v8X8F/zh/uAoISWqNJpD37NrTfPo7dzrbvAf9BeQraABhUdvJPy1/on75+//eMQ/1qjDBpGWzmPNxVGvkbdPGnc6JfCFBqiVbVXcbRf9XeBPFeNT0z33ZsBb+XViNAYc3zub/w75Pnfwv/8KXVWxD4QwzZJ/Db7BmYd1kLk9cbrUsEKuKMgbHYMHcWph20iDcM/usgozfq8nD8pw8xeNFlGE0F7276t0DB0KhDxomv8dm0lbis0eNuxfynwIs41TnMq9oZC6LVfnSsgCZQhcS9c/Hmx+twU68XHz1341+m/68C/+h+eji2bTsgfgPw6OEDWH8sGfzj42ptPmJ2b8KhI0cQtmcbwq7yVz7cj0xK4D/nD3cBTnugE+Erp2DwV9E0YZSm/fZx7Ha2fQ/4D8qTF1fqcx+jSpuvEK3xfH/1T8PX77V/yzg0ksYETdQavPnKfBy0GNyv0ioJ/gZd/Omc6BdcnoHIPb8cn07/FdHaEsbRf9XeeBFnQPikcig/Ldrv2ApNINj1Pfjx0y/xU4oORi8H+/vk+d/Dv1T90ExXfR2nd63Gkrk/4EZ6DtR3eR+UoDPBvONzjJt1He2bGuG0//tn5JRaNa4d34Bv31qKXVfSYfH7yvh/CEotkBiGnT/NxoKlp5CeZyXJ/7NgThtycRlmi+fN4MUg8KeFIg9i8zez8BMFi0yL3f3OI47/AP1/CVwuKIIfQA1hO94dMACv/ZaCWjWDoKDtLpcBpWuHYFf//hhwIgi1yyto2/+NmeN/zh/uAvwsacKeFZj9+mLsjkqDTZL228ex29r2PeC/KU/+VKIFiMuC5a+6B1PK74W/YRyiXaWyY/+YCfjpenM8HOJASdPIX6+LP58T/UJF8ry6Hb/PexcLl5xBmtlWojj679ubA1b+haS0/FsvI/YGFZoaRRRO7/4dixZuRHKGWXwS2o2/UZ7/QdxzISfwswxcMAoSpsb9SRMOvl2j9qwpNdDp+Mv/+Nu2+aoOOr0OWpULFmsVNAntiCZQwzvFK8jotBREi5yU4E/d8RdT8r7FFwTysxYWHJu3GZ8f+gRdAx3I9+uA5KwarXgcf0UCf7GmNE0SlkLjaamtnvbrPN+aK2jvPmvCL4sRvcQ/X3NarKjwyGD0eYpWzLdeSsvBaRf5KhCUCIGG4C+gJf68ZOgD2q+hcTTeLyulbSqxM4X4kkXJkzhOC1zVQtEztAOt8Pdh32okKWdv3CXvBRDtgpyJvyRTJVhhZS3w3rVEvNf01qs9vMdmDguE+r3x/FPN+B5xv8gPX7wN/VyPvA/fN+B7425179aH26w14nFuuPkpMGs3pPmXBHPCpiiLGo+2RAPqvGbLjmhXQw+rw0kTEIaQOo+h64CWGD6oLWoZnHC4aDyV2x4UNG7xM3R/XncEH5uidf6dPz0/zvPTaYvxfAu8SOG8K0iut3RwN/7gR38UT7ScriLM3Y1eCNyfxD58dhS1B89WXwikMoaqHUdhMP++aZ5bhm7QmNSHluTKP+bvL45x3Na2C+RdIONC2/T1pwI5+ZenN023AU983G4U/MW1Xi2l4os3bmNPamcOWIvpSEx8C02dVs8lu7uPuUVsWsLvmTW76DgKd5/e9lrQf3E7LECR2MQbCmQ7zsPYXuNjnF7/BDR3eAWEt83ezrbd4Dbo9iedjo4RN3nk4KGrqB/fxpb82LMPP34gUPxR1+uPQX278TWvnm9vN355lPRRb9wt7wXgvBTkQyXsOTa0Wp6KjIXNkFf4ahMv3TIHLPZ6eLDHI6gj9ip44iUXxu18s4T+ch/hNur3ByV0QeXgzEjAdUsAAthNRFxKgoMc0xRUGsiMweWEHJQtbYLmxjHsOHAQR8OvAoF6pJ3agrDDR3DxJhOLOQ4XxA+EkmzJOEwmOFPOYN/hK0ixKxGiJYHrgqEWsnD1ugXKvKuITMpDsD4QzJKBpjM3oW5eOlIVFGgkNaKBPlCFrPC9OHlTjfzcXKhTT2KnX5q8OuFOknkBYQfDEBZ2FLtOJENn0iH17B4cPngIx5MDyCjzkXZiL45HZAB6cnKBgX+yjKXT8YWTFwW0gSEwWuNxZP9ZXM9XolyQlhIgBTOjFhkJSbAbHYiPTIQqWOOjEKUxBEGaLFwiGiPTnSgXrINKlEkGridZYTLacfXiZSQ71TB55xsPGAW9IvAj5yK4J97JLoLJLtITcMNhQnZCJJIdegSWCoI5MRIRmdSnUnpsnvDc962Sk6ptiL8UgSQzUNakIn8sTr+SdBoCffZlHD0ejTSnCqV0Usq/O93rtBRkiMfMhETYSlUgGi/jUmIuyhL9eqIjI+YSruYKCOan51UBNFkpzr9nWH8QX8BFjTwPblj5i9REcJuxwxV/Ag6bHQ7BYxdJiXCUKgXLtYu4fN2KcqJy/7zujiUKMJCfFrUpAwW1fMQcPYzde/di7979COOXeo+eQazZt5jj737SZlzA3hM3YcnNEj8tpFRLycSfP5SGNvsidu6/gnSXmmSvRakAGiegLDSW6zix9xAibjpRPlhL6iZ5lFQvvHd9KRi1+Ug4sh8Xku0wkCzdIipmDzlZJCuJQM5vB6Bj7HFHEB5LRYqBtnloF5RGGANUyL10CKeiMmksSk4ehRbGsWLwZ9uVSqXh2Ma9JONwpCAQ+rRT2EO2eeTCdSjEYo78iexcZ47EoUNRSOO61nMzKipPSZp8mCJogmBSpCF87wnc4IVQLmefRvGJLyRzzyEi7hgL9DBorEiKjEUmT8J3G3PVFLulYkIxvxdUeorPnnF0Bujy43Dk4D6yVbLX/Zw2+p2OQx7x42uHUrGJCo3AQDhyamL4pGZIicpAMMVlKdGRECRijq8uboEKEVUmLuzf56Zrzykk60zQpZ7FocMHsft4MjTBgXAV92MquDi8bUnSnqkQl+LH96s9ArTUjsvqUFgEcqj4LYSqJHbj678qKR917/LgHnmXyIeKkFJwZcci/HK6+wsPUnGXf8+YdvGvE3FCUhMuISIpFwEBlCelfLOk/iJCCa0hACayT/7gnd5oFC9JC2odjPy+QU+9wN93yb84Q24LhYaW9aQjPdVGxA9/p6shIIB0eCs5K/jxAYFiv3y73+HvAj6qvz2IMb0Zp78fi9BWHTDl68WY9NLLGPRUWzR/+Sds+OwJvDh+PEI7PIRhKxJgqNEAQfsGo3/Pb3A22wFTJSM2DByAp76L4QW6iAIfYMpsbH2xMuqPC0f2lS/xaKNnMT/KhcyTizCyTgu0f3cuPuzTHl3avo+NCRsxsVZTTD0ag6OvtUTd/t8jhoq5opfAKenpU7Fm0gRMi1Ph5soaaNJ8OdLL1EGgP5q8hepiUASVRf6eDzBgwBzEhJAxunQoVfYsBg3eAYNzE8bXbIoZV3JwZlIBDfysAXFU6NgCdKV1ODGjNyp3+wPXkjZjRNPaGLY8AgbrCfz4QnW06jAFcyc/j45d2uGtTbkINtxiQmksi6wdH6FCr69w8vIOvPFwAzy16DzSTi7EiDqt0GbaEkx77hm07x6Kx0JnIcyhuo1RuqHQFJdzH8yPdCHQW3j3wHu8Kgcnvx2Jrg93w0dz3sGADl3w2NtrsXfpSDzZ+kksCTeTM+RIjy1+Y0UNVIjFzyM74snQbmjbvAte35KCMoaidxVpg5zY9X4vdFtyHBe2TkTrBn3w5QUngooUNHep+2VxNEk4hRUvPYSWHaZiyZfjMOmtiXiq3YMY/vVqfDGwDUYNfQrtH3wZq1IEaNLX4yWyv6K6L25/0vCJ+R7wZO9UauFIPYjvRpFdtJ2BRVOex7jxYxDapgfePWxBsMmP/Eqsuw1kj3rc3PphEZvqtvA81M4tGN7/a5oo3UBKZgp2f9YfA/p/iwQKlN6fwFGZgpC8/BlUfz+KouZaDGveAisyFFCmScnE1x80gTocn90L1UMjEOTcjKH1a+GxZwbimcWXkb5lCGo2mYHInCuY+UgDNJ4fQ35SQr0kMwQGlEf+0U9Rpfo4bL16FSsea4iqI1ciXkvBu7g9PPgDMhVEt4cyEVREGzSRWFClOhqsjMGF1W/jo9+B4GAnBAUF8vzteL3SEHx34jJ+79wS7YZ9j8sK91zfn17dKG7bXTF+gwVVyx3H1P5j8O3ZDGjLVody62AM6P4DIm2AKVjAocktUO3lw0iPnofWjbrh05N26DjBBYNRYpamqdjEVmWCNmUZRg38GvGKVPxUvxEaLs1CYBnf+NJt4QUEB3rdj3Rbe9oKveMYvh5eg+LYfITnM1853zbmxkJrNN8mJhRAgCv1AL4Z4R7nnJkmPr91xIB3zyLh2nWkJ+3GjAEDMPC3a1Dc/AOvFLND6di0E8lbhpO9fYLjsccxg9vbl9FkQ+pbvIugIo707xtzHEV1UQQuME0ZBDn2YTLRNS8qGJU1VBCVLocjgwZjX4ACO/5XEfV8/Nh9dKF69RL2PGoVEvUWnCrOzxs74NR6005FXJnSuLSwJ6o1+RnXzn+LSePXi9vJmKHJK4HdiCBqPAQpNDqkr+tf1Ed9ZHYPvEeR3WQfwQ/F8uHELxfipXqt0H7eebh0ej8xxv10A1kIYla/hsGDn0e3tg+i8wc7kG90lzcF8hQnPSXxFxEqmvC6ELn2M7w8dhKW7IrG4d/X47yhNAwJO7Hq1zU4lkr+Z6DZ1ZVN+PW3zTifXwrs4h/YsP8C4vZ+gpm/XKIJezx+e2ks1l40I5gMRqENgev6Efw86228/L/3seZcFsoGFbe5u8ddFnJOWK1l0fiZHniE6M8p2w2zf9mKg98PgHX9Wlx7ehVWrNmMFUODsWHJEWQry6FxE356nBPKYKrcGg+14v0Uq0IFAZaccGzaALw+ZwT6DH8F4wLPYutpB6q2HY0hT1Oby1Xw4u4IHD0yBW1jf8XvmIjxIwZhyKfjUPPIYZw2O4omUoUOjsx9+PXnq2hcpyme/ygOP8ypDUXZemhSEpoogdkUNdBu/Ovooz2NcDI2fYAWzp2b0WfFVDS+ugrrJGgocnWCZpF5u95A33m1sHbPqxj14nys/n4gtr31FhYlN0Kf3n2oUQ4qD/sZZ8MO46PORmTlecxOMEDIWY8pI47gtRdaoHzVx9C3FxA2ZQFONxiE4T2ozYUQDFp+EJFHp+PRuK3YfcUK3W2rCQH2vHPF5ByOrWcoWXsfdw+8n8gxoVmv7mgFCzIqj8Dmc0dxbFpftOrdhba5vxnrq2P32CryIiZQwXZDjfZzwnAx8hDm94jHso++xa60zFt6oT7Mm0dixDctMb5VeVR6uD+exllMn7mHZptel1HuVvdMgFC+PXr2fpJW8lGu6/v45tet+H6ADusnJ6DnD8exbs9KPI/t+P04BaXINdh8J/u7SwiU6xVOK9TVnkZ/rmhkoGyfeVi1eTOmPxqPxRuuIjfvPDb/Cd31/uFTPKTZhY+GF7Wpo1PnY4O5MRZu/BpvTHwD7fVHsPRUTbyy9lM8W8aFPM9ZRB4uBEcGtr+1H4+1rIc2vV7Fzz/OhzGwHByXfpOUSRF/EDSwJfyAuZ+nYdKKp9Dx6bcw5TkgEYPwy6sNET5qE/DqJLz20tt483/AteXHkFvq0ZLp5RjFptxt+GLiOgxduwwfjH4J088vR9/tb2PEkijkZ+8vZg91aTKpLgzy3DfURjXOfNIZs55chaSPh2HQ6zMxqT1/a7ySbNSFnW+PxKqXRuOhSjXx6LRnodwzBUt2ZnmeRPYPX9uOw7IPf8L1evVRHe7vVitK1UaLB7kx8svVKrLzgRj83UicWTEG/UZ/gFm9dFgVkQ9X4T1ARK+WSdO0ywyj14RQodPCvHMKtprLo16LbpgRvxyTK5mQl+IbX7gtrEl3oPDw28WC5R+gHRWlA3vza2/8bJwC+Xfjd2QPluyz0jZdJLMyKKv3xGDxGh/3cwZVg5+w7sAkjB3bD8bjS3Gq9itYN7Uj9OErQdP8InYoFZtOz3oS50dQYeNtb2RPGXYu2VsQDEGwbB4lGXNsaveXRnzB4CCnqRb6Lt7so8KR81GwuxRU9G7D+R4r8F6dGGxYewc/JqPKzdjqa8/b3sKQhalo3KdH0Vj7cUcobPZCexa0QbAdfhehUyvilyvvYey4z/HF9MfFfQqFHTveurPdFIUApdKOM//beQeZ3QPvp+3Q1+6OPr2K5sPPxo3EM/zWBivlZqUSTqkYk1tw5jYL+jbTsG7fceyf3wup30zHF4cyityT6lTaSuQvnBuNUYkDY+ui88+l0blnK6iPz8LAV35ERGY2bDmpODZxAvptzYfJoEZe7k3sf+0FTDyYi6ysCHz8fHdMO1UBwqJQNKo/DTceqYE5T72PXflUHOb+gAGPz8alUg+jc/sy2Ph0C7yw34agO52BuQPuspAjkGODqaHMB8qUD4aaf9IpJAQ1UBblyivhcqlQRp8JZFvgcDqKvuuFOeGUugJBbfQBT2NR7Am0W0OzjM9W4GQ2oOXVvcsOJS2jdW1UJscvWzYAyu7bEHeyNf7o3w0L1p4n1TuppbcxEVwWKIM6Y+igNEx7qikeH7EIrhZP4AGHmSaZJaCJw5ENRemeeH6oFeuXbUBU7iXM+bAGRrejsi90uyQN3lCpnQhfuxKoVx1VBRfSb6ZC37INOuMM9h23UnLgdNRAzfIKkmV5miXd+oKEoNHAHn0YFyrWQ+O6ddCgVg08/uo+7Nr9Pp4I0kGRS41aNkB1FXmRMQRl+EejaUbMv+/sH/xzOj0k5VxUeIS75p3z4i6Ga9Ysh+CQsihtFEckI8ugrf51zI8RGBlUSBVUNLmg1DVAx8HDUf7aFUTm2gtJEwQnojcdAvo2R6MG9VCn9uN4dfcu7P+8PdR2KrA87e5J904bVxjRQ3ZcioKGU0A5nQV4pAoqKx1wCcEIpno0g4qTkL7Sui8uwqLg4/JUR0O5OM+3WgtUSNppBz9VL95XJd7jUR0PVNLA4TAhhJ+UzM6lpNIFC/+E7sZ2CUD+lUMSNvUeOgU3QfMHg5BydDYmjvkVLT9Ygo/bm3CjYGIhgrSsDEGnxQMRPS0UtTuPwzJ7I7xVKR3KHjvv6A9u8LNg6cjMYOCfhCNTBs7mIifXhdDsLFxuux4j+43G1MW0PUhBKqJ4UwK9pNhUyDu7A7uulkWN8nZkpZNiA9uiYygQ89VBOEv52kNtspPCGpViiyv3JNZ/BTTuWA86ex7sDqKPs29XwZJ1Hoeozuz/UHU0In+u1+Y1LNu5Cx93rcxPWt0WUrZd7lokIkXZ5rkbuUheom2SZQgOnF99HHi6JoJhI9WXRb/523BhVDnYC+7GF5R+aZr6ZACyvV6C6rJYoO40B/0uTUfXRk/iufku9BlbFjYqKn1t4QN0NlJB5s2Tv1jwpBaZ2flkEwXnNV3Q3o3fUS5Rm7pJ23QxiJeoC8bhfT3WFi0Ngbj8/SiM+a05Plj0Etqq8iE8LWWHfOyisSlQ4URXCXu7FUQ4BKiEPERuOigRczpAoMLJP6gAtgWi7fOjEPLHd1gZl4sbM6cAL7VHgDb0jn7MKJD7teevj9C0xn0/4K1Y6wCFQA+IbpUVEb8uBZo0RWONC6lZWVAHBov7FM7YEtlNUTDYaV/3O8qM4x54d5JPi5cqC/JhBfJBOxS0XzQHO3HsV7ccpVCxvIn6UqNSp4EIrRyHU1dIIIUy5SeLLuJgifgmO7PdQBjV+cPe7o2nnh6EsR9+jfWzB6BhEI3w2Cv4eBo1y9PDZc1FUIfxeOd14IrViGptOqDjw2Pw+lsvYuIbdVFq0ieYOHIchpU7hyjiQ1VmHDZc+RLP1zUisOlzePsD4NedDij83YxcQtzz0SLbBbzTXyrZPPeC0CoXfEEpzKerpTw3SvJLLeU82zwQl/gZOfMezO09FPMa/4j33hmOxypBvPdG7Ib3l83EYOBSBcC+93+o0WIp6s1bi1cGtKAixj1w0Xt1XZQEdeg04xj2/fAeap6YieHtJ2B5TDrNSGj3bWi6BTJeKvgbDZ6M5kd+wLdr1iBm/HQ8YjTAvEeaBlGgbqb4PzTLp3/ybiCBbEpFNAkKE/htN6YAjUd+VIDQX5fEFySYQFnu+mXECBXxcLP6qNugCeoZnEil3EZ1IQmIoeABLieS3Qu3hQCXfa+knFVFhUe4W97dx/MlsXh3OaiQFze5cRsdF46dTm5JhzIK9CqtkpyyNEKKfNaB6OexKD4aiqq10Kx+HTRu3hz6vGRKd96mfO+69/7om2jPGS5Poibbo6DiVKqRtnWcX/tT6QMQaJQ6Ve6CQlkKwTSJj0xJJX8puHmYEjcVJNf2A9VCqFWhzEjBnnEZD2YKDZgl7E/p7mEa2wkpm3IgwUZFk+0Mlg2ZhAMdZ2PpC/WRZlZB7y1+gis/F8Hd5mHXvh/wXoNozBzZHf1/vA524KU7+AOB2aCpPhyvvVML3/SdjAVff4I3vy2Dd7YNRAW9CoffCUL9l2tj8jcL8ekEak/1j8ITR+6kF6JeLPgU5AfXk1xQi1fkBQTwkyZVAqFyadG5uD3ccHndV0qUOnPFsiotNQVO7xmRgvomG+FNI2MENH6wMerXqYNGDU1IjaEERPDVdzEUs20dQlBafNcFPxvNizeiXbRDd4mv4nYZdwZRdgEmYkary8KmtWFw8WKmYDA/NGUk0KTEi3xSGpTBvTCFivgfJzfDyc9HoMXIVUhjegiStlD0cL/2pLSR3xWD8y78TqGGI+9gCW26GIRA5Jz4GC9N2oMnZy/AWw9qYTZW8JMb3H3xJXdsIl/UaxAmYW+C9ykcEURzKfojEXOcvN/bkMksOdA8OAT/a34UP/2yDfNjX8GMZlSg5fmLg26pF3bpz54rB1G5QnGBFiVjLQezg+bA9DcNyTT54Ye7+yVPKandFEA8kPrQSfuor8zugffC+9Nv5UORQ84kh0oP221162nID1ZqoEgkcyutFY8vpK7EfFNRrKiPN48tg3F6U9SoVBEVylVFz/fP4GaaBQpHHhRp1MxzQtZls7lrHr5ME8/UY5mwU5Gvtl5BRgrZOE2+XCmx4r1xqTtHo2rd7pi9OQz7fpqBmVOBB8q7YwgxCX1AIIxFbisoGaTUdgfQIVwgZbiABGjVWr4K/oYk/rZlpYqEKBqbAvwlpyyAGmbEIz6XgkHsLhw8Rvs8H5MX+wmoRIalhDl8K1aeMaBNQyMcFFwik6hSd6ThegqDsiwdUxrQqPjTVhaEr1wCNHscLSoISI2NRyolPXt6MmItqltPwSgMMNiXYuYnR1Gv9zuYt+Ub9MR2nEshYQdQh/5oKg57LtS1B2NEt0gsnBCF3iNCxI94+6PhOgUyJdGKQAaFS4V6T49D9atrsPpwBkzBeihTL+E0emNgByMlIiXKlSO5kZwK6faA2WgWXasdOlY4hY+feB/zdp6n2ciPePSRRcjVGSBQ0qdJiCgTLkeVsgptEHxveKUCQPSzstSO+Ms7Jy3nhFiLlzN5cJe8p9pJ50Huy6jijaA8GZZAxwnxFipM+QewSdcqFUwmFxJXfIuEYf3QtRxVbh76eR+Vu4xF9ePTMfb9X7DrfATClz2NVi/mwKgvKIwI96R7br9AJf4iIvqrVJFdUxxARaX4FJTAn/SrTr6rUyPiN5qKSvB/VQhC5p4ZmL4mDobixRyzQhHwMLr0Bm5+sQqHspREsw56/hHlI2/gbUzB01SkWwSNKDZtKU4H9ye1O+kFKJB7dvOf0F0pWDJpm6RNLYGzjBbH5kzAp3H98P283qilM8G2fw3mp2hh4NFPhAIavR0rR45EdM1QTPpmG5Y+a8C6Yzm4uHrRHfyBZMdt1RKLmPPlMePQFPToOBJr4k7glYYa5GSE4feFwEOjG6OSMx4XTtMxFZ1Iu54sFgF30ouGAripWShC68bh659PII3oV7MkhNOsuuNrXVHO8Q1mFLOH8xRbCuXG9WN6CO1Cqc6dNxe/xthhVOUhM5P2mXPJd5vgyVFlcPrjYRizYC8uRh7DT5Va44s8mmySg3Eb5wRqpQoQJ2U7H9vuj8f0JhiRgoQEM5x557D/8HFqZ0YOxY0aXUai8rlFmDx7B8LjL2L7mIZ47lojGCijK7g8A5wICGkqTZNZA71XclUYAuGaVQmzLpZD/ylrsPXrXsCmU8is3REdKxa3hYUw8zGKsyFhT1Yzv9HcK76QovR343cO4vXsFmmbvuoin/T0K8a3ouO4qCBYMOFjxA78Dt+NqEMFuAr7f12Bw6tKEJvUGjhzjkjaW3rSdVFPbjAqkLSo6ifm8Cd9RV1w26bY6qt5O5imMXqNCEXEggnI6TsMtTVq5PuNwTYiz21LArfnpt0k7bnDa0/w6RiUQUFufor7PtHtpFhU74lnYTy/Cou3XqNJpBW5WTm0Lxu5ihroOKr0He2Ggz+p6+ZRAVv2MfxxR5kV4O54v5pA/kFj38qHfILrGTsAMOhcOOcv71Adxh924Nc5+IMzrujt+A6DMKqdlrYX+CZ1E9QEnUrgLxD00Nh+x8Qhh9F9XQpu3riB5NRk7O77PYbtJHo1VNcQu6WdN+FQGKGxR2H/BqCzMRf8oe7AhoHuhzMIzSvZxNwuUAFjpPi+5/mfMXbnWayc+wk+njYWbWtTf9Q20EA0GLNx4Jsvseyq4e6LOf5lh5L/IlnstUts88IhrC7Jrkb/z9kfB7ewxWNbUt1bk/X55Fe2Z9tCNrImyQ/t2HurjrDYiDVsfH2+DtZyzAI2uS1f7slmbTvGNs0bwGrR9vrPzWObjq9lrz3kbtd29HQ24VG+/Cyb/f3njMIOLbdnk1ccYIkpaSz8t/GsHt9W8Qk2dvoE1oGWqw9ZzMLi41h0Aa2RiSwqfCZrT/taDhrPRvatz3q98BU7cz2JxV5aLUFTd/bJ+nPsWmxkMZ4j2JWENBa74iFWdcAKdjUxhkXFJ0vSUHPYUrZ982zWlW/HU2zGHyfYjZwctm32IHGsh3oOZNXRhE3ZeIEln1vL5g5uQNurs97TVrJDV+Nv0e75RcanswtbPmH9m5cWj0f9Z9mnO6NY+KZZrIs4xjNs1vrtbPXMfuwBWm86cgnbeC6WxUZ6+oiKY7Fn1rG5/apS29ps0Nz17OyltexVHzn3YPMPRrJr0UXH57+S8v7AsDls2ZxBol1UemYq+/5gDLuRdI5tnDuAka2yBkPms+0n/5DQcQ+24HAMizvwJXu+IV9/nIWGNmR4ciE7lpzMrp71pn8di8jLZhs/68+amNz91O49k+2OS2BxV7zovmvd92Fz/ljPFg2jcVGHDZz9O9u7+Us2mNpQGcA++nU327LkBdaMr3ebylZ8O4E15stF7G8JO5Ecx+ZX5ce8zY7ExPjoMyIygSXG7mSfPMXbEO3NHhT/otR4tubSNdrn1te8AdVpe132/Lx1bPvq6awzb4MBbPGmFey1Fu5j70V3V2ibpE3timZnfxrBKNyxer1eYS8MGcjGjhlIPFZl756OYUlRBX2S/ydcZjSJpGM7sOEvDWOPVnuGLQ2/yc6VyB9OsajLK9jIcnzd69dsFPv6VAz77dUm4nrtLmPZ9AltaLkmG/bFz2zxsEa0fAe9dPmI/Xw8kUXu+tw9XoOn2JPNwHp8sIklZ6VL20NiMZ+Lusbiz//GXm/npqtRt6GsWwVaLtOHffD7GZaSsJt91rexuA+owXrM2MZy86OKxLE1J6NZXKG8SAcx11jUvi98bZts8VpSPPt1gpvnim1fYAsnt6Xlh9nQuZtYnCWdrZvam9UUxwJ7bPyP7EpaCju1cYbHHrg8T7LrPjRtZempcaKuC2iITLzJzn/WgvY/wPqMe531Jfsf8VUYtctmF4vZwifbI1hq3JXCY71/xe0pkuJL1Ok/2Jx+3F7rsOe+3MzOnv9c1H3J/K4vm79xpYRN92JLdmxh8/pVo2VP3Dq30TMO+cX8teyb4WXEfc+88jrr3e0pNrArP+5DFrbmNdaA83KH2JR4I65Q9rfsrRobsvgAS7kW7cV3JItPT/WJOXuv3WCni+jiOIuPi/I6zvO7QrEpegUb9shw9jPJKyEqnsVcXC0Rg3uyRWFni9pS+HUJe97MMvKvsHVzBrI6tN3NTzRL8PH/KJaQEsN+ebMLo6KPoWkoG9yT55tH2HOfrmcRCfvuaDdRcYle9tadzdp4lK16tal4zO1l5vmVmPfebNH2jUXy4RGK/Sc3fMY6iWP3YLO3nGPnJfP+EnbqxnG2cExHaleJderXj/52Z0v2R7HsmxeKyvN0PLset+uOfHO6oy8tZz15m6CarM7jnVkLsf04tuFKHIuPpfxycCZ7jLZVeqy12FdX0YYbsjfW/MIG0vrDs8LY5SXcn3uxpefOsY/48UN/Y5dWDKVtlVib1jynPcLeGNdKPH7AonCSzRL2FC03nnaYJSdJyPM2v3v4RBfNyo1BsOdlUpWshtNB1alGQ7OzHIQE6JBr5c+p2cXHlnlVmW1T0azXBUbrvL3VSRUy1c4KlxMOTSCsuelUqWrgsCnhVDjFdnqdxv2ZIpcDGrUOFn5en7loNkr95Tug0NFMxJZDszQl9WlANo3N+7bkWeF+hsUDhQlKIR/id1MVVOkzGyxmaqPQ+aHJDrPNc460GAT+GLiQC3Oe+4ZSfzTYnGri3SKe3dEqmPjpMI0pmCb8VK3TTJdfDlK5rMhxqMX379nyzaLcsnMsRWn3QKENgNJlgd1uh5qO1wlO5AlGCIVjKEiOJs+3SUluFhuKsKDUiuPYLXkI5t+ey6OZjod3bzmrmcPn8yYFKCnvLoUBeWa3XTC7DfkOJc2Qggp1bLfRTFohPTbnSU365yc0+LvJFHCSPolvRTH6c+1QBQST/WWRSbioHzUcnGdOmDfuVvc0Z7JTO1teLkJMOuTYyY7JHqgh9ColrEqDOCZ/VxVo2ZqfLWF/Nij0BrIjGxxWu6Q+SaHQamlEhx38HVviJv6aDpsVFn55pJi+zA4Ntc0Xda2hGaqV5PVndMchZVNmZTBc+Rkw6PmrcUh/1NhGNOlIBjlFLtvws3I6KPklQhX5rdMOhd2CfFUJ/EHNn5DajdkLUtCxX0MgIwfm/DzkRk7D6JUzkRTWDrk300WdCSQHS34uggxamF3KEumFOWywkt5Ji1CRXwj04594ysqxkt35sQcPV4VQ0mxczSge2cT3XDmcLvclc7LHXLtK1J3NwvUhkH5UxIKT/PuWjTusREOxy1yC2o9tMx5LTUR/Ds3y1VCoDdR3rviVmmxSqDqA4qyZ7JyUEUB9m4lecigv36f4IkmT7+eMFKYQKK3ZxL8W/M03WsGKTBpDyhYK3vcoBR97KmKvamTlke7uyu9Ih1I2LShhV3r5fT4NVTgOtwlapthpMujB7yfjcZW/fNwOPflSSWLTLdkXsTe9QrwPtijIjiRijpPibhFd+PsoND/DoyH9k02Jt2J5yaKoH5PdUWz1tiWbUsqeqa2JcmcRftxDFQWPv24e1fy9lFye1NakUyInj2y6BHajLGJv5OIq7m8lkZkHJeVdQfrm8dcrHzLvsQUX8hQBkjHGkk8+SnGCy4Hfd8v4ffvid9JJXsV9k7nj7+35VkClsSP5mhllqgbCHBuPdFNVPFBBD8FCcZrnV00QNI5kXL9KNFSrgmAVscFtg2Sc53QgUMuQyQKJ72xoyDhtJH8DxZVcFgAhJwZJ2SZUqWAgXkgG1nyYNC5k5uuhVFjEN1ekkY7vBv/qt1ZlyJDx/wsEqCmYHm5fA8/XX4awee1QUc3f0+RC3Kxa+KjBFSzvLCDL/5u9ZciQIeMfAhVzKgFOmvUoqDhU0GTZQctFiiWaQPCX8jN+f/vdVFE0SVEpqWgvfJfon4f7Qq4MGTJk/K1gcDo1eGjRJxiYOAKP1n0ANWo+joqthmBOzcNY+Qw/6yIXcTJkyPgvgD8wx9+EQHHLboO9eBHHwaiN/S6LOA7m/EuLOA75jJwMGTL+MYiX8piNZrp2KBUKKFVKaJUuZJtvXfqVIUOGDBklh3xGToYMGf8YXNYc2G1W8X4Su8MBi8WKLLmIkyFDhox7hlzIyZAhQ4YMGTJk3KeQCzkZMmTIkCFDhoz7FHIhJ0OGDBkyZMiQcZ9CLuRkyJAhQ4YMGTLuU8iFnAwZMmTIkCFDxn0KuZCTIUOGDBkyZMi4TyEXcjJkyJAhQ4YMGfcp5EJOhgwZMmTIkCHjPoVcyMmQIUOGDBkyZNynkAs5GTJkyJAhQ4aM+xRyISdDhgwZMmTIkHGfQi7kZMiQIUOGDBky7lPIhZwMGTJkyJAhQ8Z9CrmQkyFDhgwZMmTIuE8hF3IyZMiQIUOGDBn3JYD/B9JIZA70L8JyAAAAAElFTkSuQmCC;" vertex="1" parent="1">
                    <mxGeometry x="10" y="20" width="682.91" height="60" as="geometry"/>
                </mxCell>
                <mxCell id="13" value="" style="edgeStyle=none;html=1;fontSize=20;" edge="1" parent="1" source="6" target="8">
                    <mxGeometry relative="1" as="geometry"/>
                </mxCell>
                <mxCell id="6" value="núm = 0&lt;br&gt;suma = 1" style="shape=parallelogram;perimeter=parallelogramPerimeter;whiteSpace=wrap;html=1;fixedSize=1;fontSize=20;" vertex="1" parent="1">
                    <mxGeometry x="354" y="190" width="120" height="60" as="geometry"/>
                </mxCell>
                <mxCell id="10" value="" style="edgeStyle=none;html=1;fontSize=20;" edge="1" parent="1" source="8" target="9">
                    <mxGeometry relative="1" as="geometry"/>
                </mxCell>
                <mxCell id="8" value="núm = 10" style="html=1;whiteSpace=wrap;aspect=fixed;shape=isoRectangle;fontSize=20;" vertex="1" parent="1">
                    <mxGeometry x="347.34" y="290" width="133.33" height="80" as="geometry"/>
                </mxCell>
                <mxCell id="11" style="edgeStyle=none;html=1;fontSize=20;" edge="1" parent="1" source="9">
                    <mxGeometry relative="1" as="geometry">
                        <mxPoint x="201" y="270" as="targetPoint"/>
                    </mxGeometry>
                </mxCell>
                <mxCell id="9" value="núm = núm + suma" style="whiteSpace=wrap;html=1;fontSize=20;" vertex="1" parent="1">
                    <mxGeometry x="140.67499999999995" y="300" width="120" height="60" as="geometry"/>
                </mxCell>
                <mxCell id="12" value="" style="endArrow=classic;html=1;fontSize=20;" edge="1" parent="1">
                    <mxGeometry width="50" height="50" relative="1" as="geometry">
                        <mxPoint x="220" y="270" as="sourcePoint"/>
                        <mxPoint x="410" y="270" as="targetPoint"/>
                        <Array as="points">
                            <mxPoint x="340" y="270"/>
                            <mxPoint x="370" y="270"/>
                        </Array>
                    </mxGeometry>
                </mxCell>
            </root>
        </mxGraphModel>
    </diagram>
</mxfile>